<?xml version="1.0" standalone="no"?>
<!DOCTYPE svg PUBLIC "-//W3C//DTD SVG 20010904//EN"
 "http://www.w3.org/TR/2001/REC-SVG-20010904/DTD/svg10.dtd">
<svg version="1.0" xmlns="http://www.w3.org/2000/svg"
 width="512.000000pt" height="512.000000pt" viewBox="0 0 512.000000 512.000000"
 preserveAspectRatio="xMidYMid meet">
<metadata>
Created by potrace 1.14, written by Peter Selinger 2001-2017
</metadata>
<g transform="translate(0.000000,512.000000) scale(0.100000,-0.100000)"
fill="#000000" stroke="none">
<path d="M2355 4695 c-49 -30 -96 -54 -102 -54 -7 -1 -13 -5 -13 -11 0 -5 -4
-10 -9 -10 -5 0 -159 -86 -342 -191 -945 -541 -1166 -677 -1220 -752 -61 -84
-59 -46 -59 -1136 l0 -996 24 -50 c26 -55 87 -117 170 -170 30 -19 57 -35 60
-35 2 0 63 -33 134 -73 71 -41 135 -77 143 -80 8 -4 23 -13 34 -19 45 -29 170
-101 215 -124 14 -7 41 -15 61 -19 58 -11 84 21 199 242 57 109 115 221 130
248 15 28 73 140 130 250 56 110 117 227 135 260 34 64 178 341 251 484 93
185 68 318 -73 388 l-58 28 -260 2 c-370 3 -394 5 -469 42 -117 57 -191 167
-200 298 -11 162 83 298 250 359 46 17 127 18 1434 20 1297 1 1430 3 1473 20
19 7 33 47 28 79 -5 35 -67 88 -181 153 -19 11 -217 124 -440 252 -223 128
-418 241 -435 250 -16 10 -70 41 -120 70 -49 29 -108 62 -130 75 -22 12 -131
75 -242 139 l-202 116 -113 -1 -113 0 -90 -54z"/>
<path d="M3757 2864 c-1 -1 -27 -4 -57 -8 -173 -18 -350 -104 -467 -229 -64
-68 -144 -190 -213 -327 -29 -58 -65 -127 -80 -155 -15 -27 -73 -140 -130
-250 -56 -110 -110 -213 -120 -230 -9 -16 -64 -120 -120 -230 -108 -210 -184
-357 -255 -490 -108 -203 -199 -385 -194 -388 3 -3 87 -51 290 -165 27 -15 60
-21 135 -24 112 -5 134 1 249 71 37 23 68 41 70 41 3 0 152 86 225 130 47 28
717 414 1020 587 239 138 301 184 346 260 51 87 52 102 47 723 -3 316 -5 600
-6 630 l-2 55 -368 0 c-202 1 -369 0 -370 -1z"/>
</g>
</svg>
